# xmcd CD database file
#
# Track frame offsets:
#	150
#	10899
#	24656
#	45171
#	57952
#	80355
#	105610
#	124435
#	141047
#	161104
#	184291
#	204000
#	219210
#	234362
#	249783
#
# Disc length: 3808 seconds
#
# Revision: 0
# Processed by: cddbd v1.5.2PL0 Copyright (c) Steve Scherf et al.
# Submitted via: CDex 1.86
#
DISCID=bb0ede0f
DTITLE=Washboard Chaz Blues Trio - Live at the Spotted Cat
DYEAR=2015
DGENRE=Blues
TTITLE0=Real Best Friend
TTITLE1=Trouble in Mind
TTITLE2=I Can't Be Satisfied
TTITLE3=Falling Down Blues
TTITLE4=Fixing To Die Blues
TTITLE5=Pick Yourself Up
TTITLE6=Utah Moon
TTITLE7=Shake and Finger Pop
TTITLE8=Queen Bee
TTITLE9=Big Road Blues
TTITLE10=Don't Care Where They Bury My Body
TTITLE11=Doing Bad
TTITLE12=I Want You to Know
TTITLE13=Wrong Woman
TTITLE14=Preaching Blues
EXTD=YEAR: 2015
EXTT0=
EXTT1=
EXTT2=
EXTT3=
EXTT4=
EXTT5=
EXTT6=
EXTT7=
EXTT8=
EXTT9=
EXTT10=
EXTT11=
EXTT12=
EXTT13=
EXTT14=
PLAYORDER=
